<svg xmlns="http://www.w3.org/2000/svg" width="1100" height="1100" viewBox="0 0 1100 1100" fill="none">
  <g stroke="#d1d5db" stroke-width="10" stroke-linecap="round" stroke-linejoin="round" opacity="0.62">

    <!-- Calendar -->
    <g transform="rotate(-12 160 180)">
      <rect x="70" y="100" width="180" height="160" rx="20"/>
      <path d="M70 145h180"/>
      <path d="M120 92v34M200 92v34"/>
      <path d="M105 178h44M165 178h44M105 212h44M165 212h44"/>
    </g>

    <!-- Coffee cup -->
    <g transform="rotate(14 520 180)">
      <path d="M430 156h160v84c0 34-28 62-62 62h-36c-34 0-62-28-62-62v-84z"/>
      <path d="M590 182h34c20 0 36 16 36 36s-16 36-36 36h-30"/>
      <path d="M470 330h140"/>
      <path d="M476 116c0-16 12-18 12-34M528 116c0-16 12-18 12-34M580 116c0-16 12-18 12-34"/>
    </g>

    <!-- Pen -->
    <g transform="rotate(-28 910 170)">
      <path d="M760 160h250"/>
      <path d="M1008 160l52 26-52 26"/>
      <path d="M810 160l24-30 24 30"/>
    </g>

    <!-- Open book -->
    <g transform="rotate(8 220 560)">
      <path d="M60 460c62-22 122-22 184 0v180c-62-22-122-22-184 0z"/>
      <path d="M244 460c62-22 122-22 184 0v180c-62-22-122-22-184 0z"/>
      <path d="M244 460v180"/>
      <path d="M98 520h98M98 556h98M282 520h98M282 556h98"/>
    </g>

    <!-- Graduation cap -->
    <g transform="rotate(-16 630 560)">
      <path d="M480 540l150-60 150 60-150 60-150-60z"/>
      <path d="M520 560v54c0 30 48 54 110 54s110-24 110-54v-54"/>
      <path d="M780 548v86"/>
      <circle cx="780" cy="652" r="8" fill="#d1d5db" stroke="none"/>
    </g>

    <!-- Laptop -->
    <g transform="rotate(12 930 620)">
      <rect x="806" y="500" width="250" height="146" rx="16"/>
      <path d="M774 680h314l-34 44H808l-34-44z"/>
      <path d="M830 538h202v88H830z"/>
    </g>

    <!-- Extra repeats for seamless pattern -->
    <g transform="rotate(-18 -40 930)">
      <path d="M-170 850c62-22 122-22 184 0v180c-62-22-122-22-184 0z"/>
      <path d="M14 850c62-22 122-22 184 0v180c-62-22-122-22-184 0z"/>
      <path d="M14 850v180"/>
    </g>

    <g transform="rotate(20 420 940)">
      <path d="M336 910h170v88c0 30-24 54-54 54h-62c-30 0-54-24-54-54v-88z"/>
      <path d="M506 936h30c18 0 32 14 32 32s-14 32-32 32h-26"/>
      <path d="M374 1072h100"/>
    </g>

    <g transform="rotate(-10 850 930)">
      <rect x="760" y="850" width="180" height="160" rx="20"/>
      <path d="M760 895h180"/>
      <path d="M810 842v34M890 842v34"/>
    </g>

    <g transform="rotate(20 1080 260)">
      <path d="M930 240l150-60 150 60-150 60-150-60z"/>
      <path d="M970 260v54c0 30 48 54 110 54s110-24 110-54v-54"/>
    </g>

    <g transform="rotate(22 -40 360)">
      <path d="M-170 350h250"/>
      <path d="M78 350l52 26-52 26"/>
      <path d="M-120 350l24-30 24 30"/>
    </g>

    <g transform="rotate(-12 40 -30)">
      <rect x="-84" y="-130" width="250" height="146" rx="16"/>
      <path d="M-116 50h314l-34 44H-82l-34-44z"/>
    </g>
  </g>
</svg>
